<svg width="121" height="44" viewBox="0 0 121 44" fill="none" xmlns="http://www.w3.org/2000/svg"><path fill-rule="evenodd" clip-rule="evenodd" d="M39.42 19.508V7.147h1.186c.967 0 1.75.78 1.75 1.744v5.496c1.901-1.69 3.518-2.367 5.673-2.41 4.133-.085 7.72 2.975 8.061 7.082.407 4.906-3.172 8.6-7.836 8.6-5.119 0-8.834-3.165-8.834-8.15zm2.887.97c.29 2.555 2.737 4.664 5.317 4.705 3.362.051 5.653-2.132 5.653-5.363 0-3.231-2.24-5.364-5.507-5.364-3.492-.007-5.86 2.521-5.463 6.023zm18.683-8.193v2.202c1.847-2.043 2.94-2.592 5.103-2.592.63 0 1.257.05 1.879.15v2.925a7.615 7.615 0 0 0-2.035-.271c-1.566 0-2.88.51-3.843 1.476-.846.845-1.097 1.507-1.097 2.835v8.142h-3.044V12.285h3.036zm7.704 4.917c.156-1.448.438-2.232 1.063-2.986 1.253-1.532 3.508-2.321 6.7-2.321 2.538 0 4.385.393 5.669 1.236 1.066.692 1.504 1.719 1.504 3.527v6.602c0 1.448.376 1.959 1.409 1.93.23-.007.46-.028.69-.06v1.99a4.532 4.532 0 0 1-1.597.24c-1.909 0-2.785-.573-3.38-2.233-1.878 1.719-3.82 2.442-6.605 2.442-3.726 0-6.012-1.688-6.012-4.434a3.902 3.902 0 0 1 2.347-3.617c1.128-.482 1.817-.633 5.04-.965 2.755-.27 3.227-.332 4.008-.575.846-.27 1.222-.723 1.222-1.476 0-1.599-1.345-2.322-4.163-2.322-2.665 0-4.039.527-4.59 1.87a1.817 1.817 0 0 1-1.678 1.144l-1.627.008zm12.043 2.533c-1.931.56-3.914.924-5.92 1.086-2.723.27-3.568.784-3.568 2.14 0 1.507 1.253 2.299 3.725 2.299 2.035 0 3.57-.511 4.666-1.507.876-.815 1.097-1.387 1.097-2.81v-1.208zm12.34 7.415h-.784a1.794 1.794 0 0 1-1.625-1.006l-6.567-13.859h1.824a2.683 2.683 0 0 1 2.468 1.576l4.382 9.961 4.527-10a2.683 2.683 0 0 1 2.455-1.547h1.658L94.694 26.16c-.305.61-.933.995-1.617.99zm10.395-6.572c.313 2.866 2.562 4.644 5.916 4.644 1.904 0 3.331-.565 4.215-1.691a2.72 2.72 0 0 1 2.127-1.022h1.766c-1.538 3.377-4.29 5.037-8.392 5.037-5.125 0-8.579-3.106-8.579-7.75 0-4.643 3.539-7.899 8.643-7.899 3.692 0 6.662 1.658 7.859 4.434.533 1.277.75 2.41.75 4.25l-14.305-.003zm11.208-2.298c-.69-2.623-2.724-4.102-5.543-4.102-2.818 0-4.853 1.479-5.573 4.102h11.116z" fill="#CFD6E4"/><path fill-rule="evenodd" clip-rule="evenodd" d="m30.002 8.618.844-2.068s-1.074-1.149-2.379-2.45c-1.304-1.302-4.067-.536-4.067-.536L21.253 0H10.2L7.055 3.563s-2.763-.766-4.068.536A111.392 111.392 0 0 0 .607 6.55l.845 2.068-1.074 3.064s3.16 11.946 3.53 13.404c.73 2.873 1.228 3.983 3.3 5.439 2.072 1.455 5.833 3.983 6.447 4.366.614.383 1.381 1.035 2.072 1.035.69 0 1.458-.653 2.072-1.035.614-.383 4.375-2.911 6.447-4.366 2.072-1.456 2.571-2.566 3.3-5.439.37-1.458 3.53-13.404 3.53-13.404l-1.074-3.064z" fill="url(#a)"/><path fill-rule="evenodd" clip-rule="evenodd" d="M19.641 6.473c.46 0 3.876-.65 3.876-.65s4.047 4.882 4.047 5.926c0 .863-.348 1.2-.758 1.598a8.37 8.37 0 0 0-.263.264l-3.034 3.216c-.03.032-.064.065-.1.1-.302.305-.748.752-.434 1.496l.065.151c.345.806.771 1.8.229 2.807-.577 1.072-1.565 1.788-2.198 1.67-.634-.12-2.12-.895-2.667-1.249-.547-.354-2.28-1.78-2.28-2.326 0-.456 1.246-1.213 1.852-1.58.12-.074.215-.132.27-.169.063-.042.167-.107.296-.186.553-.343 1.55-.962 1.576-1.236.03-.339.019-.438-.427-1.274a17.875 17.875 0 0 0-.32-.565c-.424-.728-.9-1.544-.794-2.128.119-.66 1.154-1.038 2.032-1.358l.319-.118c.256-.097.578-.217.914-.342.876-.328 1.849-.692 2.01-.766.221-.102.164-.2-.509-.263l-.327-.033c-.832-.089-2.369-.252-3.115-.044l-.485.132c-.839.227-1.867.505-1.966.665-.017.028-.034.052-.05.075-.095.134-.156.221-.052.791l.175.916c.231 1.208.593 3.092.639 3.516.006.06.013.116.02.171.058.473.096.787-.453.912l-.144.033c-.62.142-1.53.35-1.858.35-.329 0-1.238-.208-1.859-.35l-.143-.033c-.55-.125-.51-.44-.453-.912l.02-.171c.046-.424.409-2.313.64-3.521.08-.41.143-.742.174-.911.104-.57.043-.657-.052-.791-.016-.023-.033-.047-.05-.075-.099-.16-1.127-.438-1.966-.665a70.92 70.92 0 0 1-.484-.132c-.747-.208-2.283-.045-3.116.044l-.327.033c-.673.064-.73.161-.508.263.16.074 1.133.438 2.009.765a400.297 400.297 0 0 1 1.234.46c.877.321 1.912.7 2.031 1.359.105.584-.37 1.4-.794 2.128-.114.197-.226.387-.32.565-.446.836-.458.935-.427 1.274.025.274 1.023.893 1.576 1.235.129.08.233.145.296.187.055.037.15.095.27.168.606.368 1.852 1.125 1.852 1.58 0 .546-1.733 1.973-2.28 2.327-.546.354-2.033 1.13-2.666 1.248-.634.119-1.622-.597-2.199-1.669-.542-1.007-.116-2.001.23-2.807l.064-.151c.315-.744-.132-1.191-.434-1.495l-.1-.101-3.034-3.217a9.314 9.314 0 0 0-.263-.263c-.41-.397-.758-.735-.758-1.598 0-1.044 4.047-5.927 4.047-5.927s3.415.651 3.876.651c.367 0 1.077-.243 1.817-.498.187-.064.376-.129.562-.19.921-.307 1.535-.31 1.535-.31s.614.003 1.535.31c.186.061.375.126.563.19.74.255 1.449.498 1.816.498zm-.586 17.272c.722.371 1.234.635 1.428.756.25.156.098.451-.13.612-.229.161-3.296 2.532-3.594 2.794l-.12.107c-.287.258-.653.587-.912.587-.26 0-.625-.329-.912-.587l-.12-.107c-.298-.262-3.365-2.633-3.593-2.794-.228-.16-.381-.456-.13-.612.193-.121.706-.385 1.428-.757l.687-.353c1.082-.559 2.43-1.034 2.64-1.034.21 0 1.558.475 2.64 1.034l.688.354z" fill="#fff"/><path fill-rule="evenodd" clip-rule="evenodd" d="M24.4 3.563 21.253 0H10.2L7.055 3.563s-2.763-.766-4.068.536c0 0 3.684-.332 4.95 1.723 0 0 3.415.651 3.876.651.46 0 1.458-.382 2.38-.689.92-.306 1.534-.308 1.534-.308s.614.002 1.535.308c.921.307 1.919.69 2.38.69.46 0 3.875-.652 3.875-.652 1.266-2.055 4.95-1.723 4.95-1.723-1.305-1.302-4.067-.536-4.067-.536" fill="url(#b)"/><path d="M93.141 38.895c.43.076.794.302 1.093.678.299.376.448.801.448 1.276 0 .407-.107.775-.322 1.105-.207.322-.51.578-.908.77-.399.184-.863.276-1.392.276h-3.197v-7.992h3.048c.544 0 1.012.091 1.403.275.39.184.686.434.885.748.2.307.3.652.3 1.035 0 .46-.123.843-.369 1.15a2.143 2.143 0 0 1-.989.678zm-2.967-.53h1.622c.43 0 .763-.095 1-.287.246-.2.368-.483.368-.851 0-.36-.122-.64-.368-.84-.237-.206-.57-.31-1-.31h-1.622v2.288zm1.771 3.566c.445 0 .794-.108 1.047-.322.253-.215.38-.514.38-.898 0-.39-.135-.701-.403-.931-.269-.23-.625-.345-1.07-.345h-1.725v2.495h1.771zm5.933-5.865v2.345h2.76v1.07h-2.76v2.45h3.105V43h-4.416v-8.004h4.416v1.07h-3.105zm10.343-1.058v1.069h-2.127V43h-1.311v-6.923h-2.139v-1.07h5.577zm5.606 6.359h-3.346L109.906 43h-1.369l2.864-8.004h1.518L115.782 43h-1.38l-.575-1.633zm-.368-1.07-1.299-3.714-1.311 3.715h2.61z" fill="#828D9F"/><defs><linearGradient id="a" x1=".378" y1="36.179" x2="31.077" y2="36.179" gradientUnits="userSpaceOnUse"><stop stop-color="#F50"/><stop offset=".41" stop-color="#F50"/><stop offset=".582" stop-color="#FF2000"/><stop offset="1" stop-color="#FF2000"/></linearGradient><linearGradient id="b" x1="3.534" y1="6.45" x2="28.467" y2="6.45" gradientUnits="userSpaceOnUse"><stop stop-color="#FF452A"/><stop offset="1" stop-color="#FF2000"/></linearGradient></defs></svg>